# xmcd
#
# Track frame offsets: 
#        150
#        22319
#        38411
#        57823
#        92026
#        114748
#        140536
#        166377
#        201080
#        245736
#        258006
#        285162
#
# Disc length: 4117 seconds
#
# Revision: 1
# Processed by: cddbd v1.5.2PL0 Copyright (c) Steve Scherf et al.
# Submitted via: ExactAudioCopy v0.99pb5
#
DISCID=a210130c
DTITLE=The Hollywood Fats Band - Larger Than Life, Vol. 2
DYEAR=2010
DGENRE=Blues
TTITLE0=She's Dynamite (live at The White House - Laguna Beach, CA, 19
TTITLE0=80)
TTITLE1=Blue And Lonesome (live at The White House - Laguna Beach, CA,
TTITLE1=1980)
TTITLE2=Hide Away (live at The Belly Up Tavern - Solana Beach, CA, 198
TTITLE2=0)
TTITLE3=Kansas City (live at The White House - Laguna Beach, CA, 1980)
TTITLE4=Half Steppin' (live at The White House - Laguna Beach, CA, 198
TTITLE4=0)
TTITLE5=Read About My Baby (live at The Keystone - Palo Alto, CA, 1979
TTITLE5=)
TTITLE6=Nit Wit (live at The Keystone - Palo Alto, CA, 1979)
TTITLE7=Blues After Hours (live at The Keystone - Palo Alto, CA, 1979)
TTITLE8=Jumpin' With Duncan (live at The White House - Laguna Beach, C
TTITLE8=A, 1980)
TTITLE9=Lonesome (live at The White House - Laguna Beach, CA, 1980)
TTITLE10=Shake Your Boogie (live at The White House - Laguna Beach, CA
TTITLE10=, 1980)
TTITLE11=Baby, Let's Play House (live at The White House - Laguna Beac
TTITLE11=h, CA, 1980)
EXTD=Released with The Hollywood Blue Flames' "Deep In America" - bonu
EXTD=s disc!
EXTT0=
EXTT1=
EXTT2=
EXTT3=
EXTT4=
EXTT5=
EXTT6=
EXTT7=
EXTT8=
EXTT9=
EXTT10=
EXTT11=
PLAYORDER=
